<?xml version="1.0" encoding="utf-8"?>
<!-- Generator: Adobe Illustrator 22.0.1, SVG Export Plug-In . SVG Version: 6.00 Build 0)  -->
<svg version="1.1" id="Capa_1" xmlns="http://www.w3.org/2000/svg" xmlns:xlink="http://www.w3.org/1999/xlink" x="0px" y="0px"
	 viewBox="0 0 189.5 193.8" style="enable-background:new 0 0 189.5 193.8;" xml:space="preserve">
<style type="text/css">
	.st0{fill:#EFC75E;}
	.st1{fill:#E2574C;}
	.st2{fill:#CF5349;}
	.st3{fill:#D7B354;}
	.st4{fill:#EBEBEB;}
	.st5{fill:#324D5B;}
	.st6{fill:#CCD0D2;}
</style>
<g>
	<path class="st0" d="M59.8,135.6c8.4,8.4,11,22.2,2.5,30.6c-8.4,8.4-33.8,17.7-42.3,9.4c-8.4-8.4,1-33.7,9.4-42.1
		C37.9,125.1,51.3,127.2,59.8,135.6z"/>
	<path class="st1" d="M137.6,117c12.7,26.3-18.3,87.5-32.6,70.2c-5.8-7-5.4-18.2-20.6-32.7c0,0.1,5.5,1,12-4.9
		C111.4,138.1,137.6,117,137.6,117z"/>
	<path class="st1" d="M84.3,58C55.9,45.1-10,75.9,8.8,90.3c7.6,5.9,19.7,5.5,35.3,20.9c-0.1,0-1.1-5.5,5.2-12
		C61.6,84.2,84.2,58,84.3,58z"/>
	<path class="st2" d="M71.7,55.1L70.5,55C64.3,62.6,49,81.4,39.7,93.3c-3.8,4.1-4.8,7.9-5.1,10.1c1.8,1.3,3.7,2.7,5.6,4.4
		c0.5-2.2,1.7-5.4,4.8-8.8c11.9-15.2,33.5-41.7,33.6-41.7C76.6,56.3,74.3,55.6,71.7,55.1z"/>
	<path class="st2" d="M137.8,117.4c-3.7,3.1-27.2,22.4-41.2,33.4c-4.6,4.3-8.7,5.1-10.8,5.2c2,2,3.7,4,5.2,5.9
		c1.8,0,6.3-0.6,11.3-5.2c11.7-9.2,30-24.2,37.9-30.6C139.7,122.9,138.9,120,137.8,117.4z"/>
	<path class="st3" d="M39.8,128.4c1.2,5.3,4.8,11.5,10.4,17.1c5.6,5.6,11.8,9.2,17.1,10.4c0.9-7.1-2-14.8-7.5-20.2
		C54.3,130.2,46.8,127.4,39.8,128.4z"/>
	<path class="st4" d="M184.8,10.7c4.2,4-2,63.5-42.7,103.9c-25.2,25-41.9,34.7-45.9,38.2c-11.1,5-18.4,7.7-40.3-14.1
		C34,117,38.2,111,43.1,100.6c3.6-4,13.6-20.8,38.7-45.8C122.6,14.4,180.4,6.8,184.8,10.7z"/>
	<path class="st5" d="M134,61.5c8.8,8.8,8.8,23,0,31.8s-23,8.8-31.8,0s-8.8-23,0-31.8S125.2,52.7,134,61.5z"/>
	<path class="st6" d="M126.1,69.4c4.4,4.4,4.4,11.5,0,15.9s-11.6,4.4-16,0s-4.4-11.5,0-15.9C114.6,65,121.7,65,126.1,69.4z"/>
</g>
</svg>
