<?xml version="1.0" encoding="utf-8"?>
<!-- Generator: Adobe Illustrator 22.0.1, SVG Export Plug-In . SVG Version: 6.00 Build 0)  -->
<svg version="1.1" xmlns="http://www.w3.org/2000/svg" xmlns:xlink="http://www.w3.org/1999/xlink" x="0px" y="0px"
	 viewBox="0 0 180.9 180.9" style="enable-background:new 0 0 180.9 180.9;" xml:space="preserve">
<style type="text/css">
	.st0{fill:#33FFCC;}
	.st1{fill:#FFFFFF;}
</style>
<g id="Capa_1">
	<g>
		<g>
			<path class="st0" d="M144.8,22C134.7,10.7,121.3,0.2,88.2,0c-12.9-0.1-32.7,3-48,19.2C30.9,29,24,41.4,26,61.7
				c0.4,4.4,6.7,9.5,2.3,18c0,0-9.5,16.7-9.1,19.4c0,0-0.2,5.1,7.7,5.2c0,0,2,0.2,1.4,4.6l-0.1,6.3c0,0,0.2,1.9,3.7,3
				c0,0,0.6,0.6-0.3,1.9c0,0-1.8,2,1.3,6.4c1.2,1.6,3,3.6,1.9,7.7c0,0-1.5,7.9,1.6,9.8c0,0,3.5,4.2,17.7,2.4c5-0.6,14.1-3,19.6,3.8
				c0,0,13.1,24.8,14.1,30.7c0,0,22.3-39.7,49.5-45.8c0,0-6.6-14.9,6.9-34.3c0,0,16.9-22.3,17.4-34.6
				C161.4,66.2,165.9,45.6,144.8,22z"/>
		</g>
	</g>
</g>
<g id="Capa_2">
	<g>
		<g>
			<path class="st1" d="M114.8,70.9c3.9,4.1,5.8,9.5,5.8,16.4v37.1h-19.4V92.9c0-3.3-0.9-6-2.7-7.9c-1.8-1.9-4.2-2.9-7.3-2.9
				c-3.6,0.1-6.4,1.3-8.4,3.8c-2.1,2.4-3.1,5.6-3.1,9.5v29H60.3V43.7h19.4v31.4c2.1-3.4,4.8-6,8.1-7.7c3.3-1.7,7.1-2.6,11.4-2.6
				C105.7,64.8,110.9,66.9,114.8,70.9z"/>
		</g>
		<circle class="st1" cx="110" cy="46.7" r="10.2"/>
	</g>
</g>
</svg>
