<?xml version="1.0" encoding="utf-8"?>
<!-- Generator: Adobe Illustrator 22.0.1, SVG Export Plug-In . SVG Version: 6.00 Build 0)  -->
<svg version="1.1" id="Capa_1" xmlns="http://www.w3.org/2000/svg" xmlns:xlink="http://www.w3.org/1999/xlink" x="0px" y="0px"
	 viewBox="0 0 241.1 186.8" style="enable-background:new 0 0 241.1 186.8;" xml:space="preserve">
<style type="text/css">
	.st0{fill:#FFFFFF;}
</style>
<g>
	<path class="st0" d="M198.6,42.9l-78.1,68.8L42.5,42.9c-3.1-2.7-7.8-2.4-10.6,0.7c-2.7,3.1-2.4,7.8,0.7,10.6l83,73.2
		c1.4,1.2,3.2,1.9,5,1.9s3.5-0.6,5-1.9l83-73.2c3.1-2.7,3.4-7.5,0.7-10.6C206.4,40.5,201.7,40.2,198.6,42.9z"/>
	<path class="st0" d="M218.6,11H22.5C10.1,11,0,21.1,0,33.5v119C0,164.9,10.1,175,22.5,175h196.1c12.4,0,22.5-10.1,22.5-22.5v-119
		C241.1,21.1,231,11,218.6,11z M226.1,152.5c0,4.1-3.4,7.5-7.5,7.5H22.5c-4.1,0-7.5-3.4-7.5-7.5v-119c0-4.1,3.4-7.5,7.5-7.5h196.1
		c4.1,0,7.5,3.4,7.5,7.5V152.5z"/>
</g>
</svg>
