<?xml version="1.0" encoding="utf-8"?>
<!-- Generator: Adobe Illustrator 22.0.1, SVG Export Plug-In . SVG Version: 6.00 Build 0)  -->
<svg version="1.1" id="Layer_1" xmlns="http://www.w3.org/2000/svg" xmlns:xlink="http://www.w3.org/1999/xlink" x="0px" y="0px"
	 viewBox="0 0 512 443" style="enable-background:new 0 0 512 443;" xml:space="preserve">
<style type="text/css">
	.st0{fill:#FFFFFF;}
</style>
<g>
	<g>
		<path class="st0" d="M451.7,205.3c-17.4-8.7-50.1-8.8-51.5-8.8c-4.1,0-7.5,3.4-7.5,7.5s3.4,7.5,7.5,7.5c8.4,0,32.9,1.3,44.8,7.2
			c1.1,0.5,2.2,0.8,3.3,0.8c2.8,0,5.4-1.5,6.7-4.1C456.9,211.6,455.4,207.1,451.7,205.3z"/>
	</g>
</g>
<g>
	<g>
		<path class="st0" d="M489.1,312l-31-8.9c-1.3-0.4-2.3-1.6-2.3-3v-10.3c2.5-1.7,4.9-3.7,7.2-5.9c10.9-10.6,16.9-24.7,16.9-39.9
			v-14.3l3-6c3.3-6.6,5-13.9,5-21.3v-38.6c0-4.1-3.4-7.5-7.5-7.5h-72.2c-26.2,0-47.6,21.4-47.6,47.6v0.4c0,6.1,1.4,12.2,4.2,17.7
			l3.8,7.7V242c0,19.4,9.6,36.8,24.1,47.3l0,10.8c0,1.7,0,2.4-6.2,4.1l-15.1,4.3l-43.7-15.9c0.2-2.1-0.5-4.2-2-5.7l-14-14.7v-24.6
			c1.5-1.2,2.9-2.5,4.3-3.8c17.6-16.5,27.7-39.8,27.7-64v-19.7c5.3-11.6,8-23.8,8-36.5V43.6c0-4.1-3.4-7.5-7.5-7.5H232
			c-39.5,0-71.7,32.1-71.7,71.7v16c0,12.6,2.7,24.9,8,36.5v16.9c0,28,12.5,53.3,32.1,69.9v25.2l-14,14.7c-1.5,1.6-2.2,3.7-2,5.7
			l-46.1,16.8c-3.3,1.2-6.5,2.9-9.3,4.9l-7.2-3.6c21.6-9.4,28.4-22.6,28.7-23.2c1.1-2.1,1.1-4.6,0-6.7c-5.4-10.8-6.1-30.6-6.6-46.6
			c-0.2-5.3-0.3-10.3-0.7-14.8c-2.6-36-29.9-63.1-63.6-63.1s-61.1,27.1-63.6,63.1c-0.3,4.5-0.5,9.5-0.7,14.8
			c-0.5,15.9-1.2,35.7-6.6,46.6c-1.1,2.1-1.1,4.6,0,6.7c0.3,0.7,7.1,13.8,28.8,23.2l-20.1,10.1C6.7,326.2,0,337,0,349v55.4
			c0,4.1,3.4,7.5,7.5,7.5s7.5-3.4,7.5-7.5V349c0-6.3,3.5-12,9.2-14.8l25.1-12.5l8.7,8.3c6.1,5.8,13.9,8.7,21.7,8.7
			c7.8,0,15.6-2.9,21.7-8.7l8.7-8.3l8.2,4.1c-3.8,6.2-6,13.4-6,20.9v57.7c0,4.1,3.4,7.5,7.5,7.5s7.5-3.4,7.5-7.5v-57.7
			c0-10.3,6.5-19.6,16.2-23.1l48.7-17.7l20.3,30.4c2.6,3.9,6.7,6.4,11.4,6.8c0.5,0.1,1,0.1,1.5,0.1c4.1,0,8-1.6,11-4.5l12.4-12.4
			v78.1c0,4.1,3.4,7.5,7.5,7.5s7.5-3.4,7.5-7.5v-78.1l12.4,12.4c2.9,2.9,6.9,4.5,11,4.5c0.5,0,1,0,1.5-0.1c4.6-0.5,8.8-3,11.4-6.8
			l20.3-30.4l48.7,17.7c9.7,3.5,16.2,12.8,16.2,23.1v57.7c0,4.1,3.4,7.5,7.5,7.5s7.5-3.4,7.5-7.5v-57.7c0-10.4-4.1-20.2-11.1-27.4
			l1.9-0.5c1.9-0.5,4.4-1.3,7-2.5l19.1,19.1v69.1c0,4.1,3.4,7.5,7.5,7.5s7.5-3.4,7.5-7.5v-69.1l19-19c1,0.5,2.1,0.9,3.2,1.3l31,8.9
			c7.1,2,12,8.6,12,15.9v62c0,4.1,3.4,7.5,7.5,7.5s7.5-3.4,7.5-7.5v-62C512,328.4,502.6,315.9,489.1,312z M48.1,298.8
			c-14-5-21.1-11.8-24.1-15.5c2-5.4,3.4-11.5,4.3-18c4.1,9.9,11.1,18.4,19.8,24.4V298.8z M91.1,319.1c-6.4,6.1-16.4,6.1-22.8,0
			l-7-6.6c1.2-2.2,1.8-4.7,1.8-7.3v-8c5.2,1.6,10.8,2.5,16.6,2.5c5.8,0,11.3-0.9,16.6-2.5l0,8c0,2.6,0.6,5.1,1.8,7.3L91.1,319.1z
			 M79.7,284.7c-22.4,0-40.6-18.2-40.6-40.6c0-4.1-3.4-7.5-7.5-7.5c-0.4,0-0.8,0-1.2,0.1c0-0.6,0-1.3,0.1-1.9
			c0.2-5.2,0.3-10,0.6-14.2c1-13.5,6.3-25.9,15.2-35c8.9-9.2,20.8-14.2,33.5-14.2s24.6,5,33.5,14.2c8.8,9.1,14.2,21.5,15.2,35
			c0.3,4.2,0.5,9,0.6,14.2c0,0.4,0,0.9,0,1.3c-8.2-12.6-20.8-21.8-37-27.1c-15-4.8-28-4.5-28.5-4.5c-2,0.1-3.8,0.9-5.2,2.3l-13.5,14
			c-2.9,3-2.8,7.7,0.2,10.6s7.7,2.8,10.6-0.2l11.3-11.7c9.7,0.5,40.9,4.1,53,30.8C116.7,270,99.8,284.7,79.7,284.7z M111.2,298.8
			l0-8.9c8.7-6,15.7-14.5,19.8-24.4c0.9,6.5,2.2,12.6,4.3,17.9C132.3,287,125.2,293.8,111.2,298.8z M183.4,177.1v-18.6
			c0-1.1-0.3-2.2-0.7-3.3c-4.8-10-7.3-20.6-7.3-31.5v-16c0-31.2,25.4-56.7,56.7-56.7h104.8v72.7c0,10.9-2.4,21.5-7.3,31.5
			c-0.5,1-0.7,2.1-0.7,3.3v21.4c0,20.3-8.2,39.1-23,53c-1.9,1.7-3.8,3.4-5.8,4.9c0,0-0.1,0.1-0.1,0.1
			c-13.9,10.5-30.9,15.7-48.7,14.5C213.2,250,183.4,216.9,183.4,177.1z M225.6,328.1c-0.1,0.1-0.2,0.2-0.4,0.1
			c-0.2,0-0.3-0.2-0.4-0.2l-23.3-35l7.5-7.9l35.4,24.2L225.6,328.1z M256.1,299.1l-40.6-27.8v-14c10.5,5.7,22.3,9.2,34.8,10
			c2,0.1,3.9,0.2,5.9,0.2c14.3,0,28.1-3.4,40.5-9.9v13.7L256.1,299.1z M287.4,328c0,0.1-0.1,0.2-0.4,0.2c-0.2,0-0.4-0.1-0.4-0.1
			l-18.8-18.8l35.4-24.2l7.5,7.9L287.4,328z M424.3,321.6l-17-17c0.3-1.3,0.5-2.8,0.5-4.5l0-3.2c4.7,1.5,9.7,2.5,14.9,2.6
			c0.6,0,1.2,0,1.7,0c5.7,0,11.2-0.9,16.5-2.5v3c0,1.5,0.2,3,0.5,4.4L424.3,321.6z M452.6,273.2c-7.9,7.7-18.5,11.8-29.5,11.4
			c-21.7-0.7-39.4-19.8-39.4-42.6v-14c0-1.2-0.3-2.3-0.8-3.4l-4.6-9.3c-1.7-3.4-2.6-7.2-2.6-11V204c0-18,14.6-32.6,32.6-32.6h64.7
			v31.1c0,5-1.2,10.1-3.4,14.6l-3.8,7.6c-0.5,1-0.8,2.2-0.8,3.4v16C464.9,255.1,460.5,265.5,452.6,273.2z"/>
	</g>
</g>
<g>
	<g>
		<path class="st0" d="M472.4,348.8c-4.1,0-7.5,3.4-7.5,7.5v48.1c0,4.1,3.4,7.5,7.5,7.5s7.5-3.4,7.5-7.5v-48.1
			C479.9,352.2,476.6,348.8,472.4,348.8z"/>
	</g>
</g>
<g>
	<g>
		<path class="st0" d="M39.6,358.7c-4.1,0-7.5,3.4-7.5,7.5v38.2c0,4.1,3.4,7.5,7.5,7.5s7.5-3.4,7.5-7.5v-38.2
			C47.1,362.1,43.7,358.7,39.6,358.7z"/>
	</g>
</g>
<g>
	<g>
		<path class="st0" d="M317.5,126.5c-28.4-28.4-87.7-22.9-111.9-19.3c-7.6,1.1-13.2,7.6-13.2,15.3v17.3c0,4.1,3.4,7.5,7.5,7.5
			s7.5-3.4,7.5-7.5v-17.3c0-0.3,0.2-0.5,0.4-0.5c9.7-1.5,28.9-3.7,48.7-2.4c23.4,1.6,40.3,7.4,50.3,17.5c2.9,2.9,7.7,2.9,10.6,0
			C320.5,134.2,320.5,129.4,317.5,126.5z"/>
	</g>
</g>
<g>
	<g>
		<path class="st0" d="M167.9,364.9c-4.1,0-7.5,3.4-7.5,7.5v32.1c0,4.1,3.4,7.5,7.5,7.5s7.5-3.4,7.5-7.5v-32.1
			C175.4,368.2,172,364.9,167.9,364.9z"/>
	</g>
</g>
<g>
	<g>
		<path class="st0" d="M344.3,364.9c-4.1,0-7.5,3.4-7.5,7.5v32.1c0,4.1,3.4,7.5,7.5,7.5s7.5-3.4,7.5-7.5v-32.1
			C351.8,368.2,348.4,364.9,344.3,364.9z"/>
	</g>
</g>
</svg>
